<?xml version="1.0" standalone="no"?><!DOCTYPE svg PUBLIC "-//W3C//DTD SVG 1.1//EN" "http://www.w3.org/Graphics/SVG/1.1/DTD/svg11.dtd"><svg t="1546786848067" class="icon" style="" viewBox="0 0 1024 1024" version="1.1" xmlns="http://www.w3.org/2000/svg" p-id="1109" xmlns:xlink="http://www.w3.org/1999/xlink" width="200" height="200"><defs><style type="text/css"></style></defs><path d="M345.6 530.285714a91.465143 91.465143 0 1 1 0-36.571428H841.142857a18.285714 18.285714 0 1 1 0 36.571428H345.6z m332.8 256H182.857143a18.285714 18.285714 0 1 1 0-36.571428h495.542857a91.428571 91.428571 0 1 1 0 36.571428z m0-512H182.857143a18.285714 18.285714 0 0 1 0-36.571428h495.542857a91.428571 91.428571 0 1 1 0 36.571428zM822.857143 256a54.857143 54.857143 0 1 0-109.714286 0 54.857143 54.857143 0 0 0 109.714286 0z m0 512a54.857143 54.857143 0 1 0-109.714286 0 54.857143 54.857143 0 0 0 109.714286 0z m-512-256a54.857143 54.857143 0 1 0-109.714286 0 54.857143 54.857143 0 0 0 109.714286 0z" p-id="1110"></path></svg>