<?xml version="1.0" standalone="no"?><!DOCTYPE svg PUBLIC "-//W3C//DTD SVG 1.1//EN" "http://www.w3.org/Graphics/SVG/1.1/DTD/svg11.dtd"><svg t="1545811153631" class="icon" style="" viewBox="0 0 1184 1024" version="1.1" xmlns="http://www.w3.org/2000/svg" p-id="5296" xmlns:xlink="http://www.w3.org/1999/xlink" width="231.25" height="200"><defs><style type="text/css"></style></defs><path d="M216.92708333 90.125h711.9140625c58.0078125 0 105.46875 47.4609375 105.46875 105.46875v632.8125c0 58.0078125-47.4609375 105.46875-105.46875 105.46875H216.92708333c-58.0078125 0-105.46875-47.4609375-105.46875-105.46875V195.59375c0-58.0078125 47.4609375-105.46875 105.46875-105.46875z" fill="#2F77F1" p-id="5297"></path><path d="M849.73958333 353.796875h237.3046875v316.40625H849.73958333c-58.0078125 0-105.46875-47.4609375-105.46875-105.46875v-105.46875c0-58.0078125 47.4609375-105.46875 105.46875-105.46875z m0 52.734375h184.5703125v210.9375H849.73958333c-29.00390625 0-52.734375-23.73046875-52.734375-52.734375v-105.46875c0-29.00390625 23.73046875-52.734375 52.734375-52.734375z" fill="#AFFCFE" p-id="5298"></path></svg>